<?xml version="1.0" encoding="UTF-8" standalone="no"?>
<svg
   width="128"
   height="128"
   viewBox="0 0 128 128"
   fill="none"
   version="1.1"
   id="svg60"
   xmlns="http://www.w3.org/2000/svg"
   xmlns:svg="http://www.w3.org/2000/svg">
  <defs
     id="defs64">
    <clipPath
       clipPathUnits="userSpaceOnUse"
       id="clipPath474">
      <path
         id="path476"
         style="fill:#ff0000;fill-opacity:1;fill-rule:nonzero;stroke:none"
         d="m 0,0 v 64 h 161.32812 c -0.94802,-3.198859 -1.09704,-6.853499 -1.29101,-9.40625 -0.0925,-1.217512 -0.14016,-1.859432 -0.20313,-2.689453 -0.98576,1.139159 -1.89415,2.355556 -3.04882,3.316406 -1.50356,1.251167 -5.05887,2.275359 -6.78907,2.869141 -2.02124,0.452811 -4.01901,1.032824 -6.06445,1.359375 -1.00714,0.16078 -2.03908,0.125738 -3.05859,0.09766 -1.67864,-0.04625 -3.3582,-0.136155 -5.02735,-0.320313 -0.67897,-0.07491 -1.33607,-0.286533 -1.99804,-0.455078 -3.2763,-0.834178 -2.41061,-0.573665 -5.00196,-1.585937 -1.03291,-0.572738 -2.09613,-1.095893 -3.09961,-1.71875 -0.44609,-0.276883 -0.84056,-0.631865 -1.23828,-0.974609 -1.73181,-1.492413 -1.564,-1.331386 -2.63672,-2.521485 -0.28591,-0.317185 -0.61083,-0.603115 -0.85547,-0.953125 -0.34708,-0.496648 -0.67116,-1.008226 -0.99023,-1.523437 -0.49253,0.770296 -1.09144,1.303279 -1.88867,1.134765 -2.03254,-0.429622 -0.90689,-6.411461 -2.80469,-5.566406 -5.49105,2.445053 -8.19788,8.863033 -12.92773,12.572266 -1.15393,0.904937 -2.443684,-3.856042 -3.375003,-2.824219 -0.278031,-0.329995 -0.561249,-0.656042 -0.84375,-0.982422 -0.994264,-0.513584 -1.54248,-1.216175 -1.726563,-2.0625 -0.08573,-0.107381 -0.177498,-0.209758 -0.261718,-0.318359 -0.265792,-0.342737 -0.438236,-0.748661 -0.650391,-1.126954 -0.830489,-1.480834 -1.436787,-2.750181 -2.351563,-4.197265 -0.640309,-1.012911 -1.319355,-2.001207 -1.978515,-3.001953 -0.867446,-1.462669 -1.778106,-2.901239 -2.605469,-4.386719 -3.881673,-0.284652 -7.751165,-0.723129 -11.626953,-1.072266 -0.12258,-0.01104 -0.246065,0 -0.369141,0 -18.275926,0 -18.275926,-18.46289 0,-18.46289 0.123076,0 0.24644,-0.0096 0.369141,0 1.157607,0.09067 2.313727,0.198477 3.470703,0.296875 -0.919071,-0.717427 -1.788196,-1.47593 -2.40039,-2.451172 -1.657125,-2.63983 1.935725,-2.460938 0.03711,-2.460938 C 65.208142,14.583929 61.419313,5.4136446 66.701172,0 Z m 85.966797,0 c 1.084688,0.84661715 2.361576,1.8134792 4.162109,3.078125 1.972346,1.3853226 3.615223,3.1914973 5.347656,4.8671875 0.152699,0.1476968 5.276968,5.1753485 5.871098,6.6542965 0.26552,0.661417 0.47137,1.342247 0.66015,2.029297 2.64511,-3.768735 2.16162,-3.283393 4.55274,-5.30664 1.49205,-1.262512 2.96049,-2.2271562 4.37695,-2.931641 0.42581,-1.442249 1.24084,-2.9544413 1.95508,-4.3222656 C 113.84379,2.3048697 114.21774,1.3388222 115.65039,0 Z m 45.582033,0 c 1.04986,1.2069028 2.07107,2.4444481 3.09765,3.6757812 0.7278,0.616247 1.39825,1.3813781 1.98438,2.3027344 0.55141,0.6408067 1.08917,1.2957858 1.6582,1.9179688 3.54796,3.8793506 2.58918,3.5774616 -0.0879,1.6269531 0.30442,1.0336365 0.53817,2.1614405 0.66992,3.4023435 1.00749,-0.438436 2.10512,-0.73443 3.44336,-0.753906 3.76999,-0.05486 6.16309,0.779665 8.72852,2.824219 2.7577,2.197793 2.31729,1.725093 3.53906,3.214844 0.31032,0.873508 -0.087,-0.151587 1.57422,1.59375 0.65896,0.692305 1.27856,1.421574 1.88281,2.162109 1.38508,1.697469 2.44025,3.13233 3.50586,4.724609 0.0108,1.59e-4 0.0223,-1.65e-4 0.0332,0 0.26669,-1.093895 0.35106,-1.429244 0.55079,-2.236328 -1.77835,-1.397018 -3.10143,-3.736037 -4.13477,-5.197266 0.87361,-3.653452 1.74749,-7.307481 2.62109,-10.960937 1.55589,-6.5067783 3.08318,-3.9450787 4.57618,1.0039062 0.4003,-0.1195982 0.82219,-0.2325843 1.24804,-0.3515624 1.92035,-0.8475851 3.82764,-1.6913146 5.79297,-1.2929688 4.40539,0.8929126 6.11411,2.993978 7.17969,5.630859 6.1419,-2.621732 7.70174,-3.134261 10.56445,6.882813 0.16773,-0.353609 0.348,-0.700523 0.5586,-1.029297 0.76163,-1.189023 1.50075,-2.478391 2.63867,-3.314453 6.31679,-4.641152 4.61028,-0.741374 5.44922,-2.679688 2.19134,-0.729864 1.09335,-0.405682 5.95117,-0.820312 2.49346,-0.212823 4.66512,-0.06658 7.17187,0.271484 0.87051,0.1174 1.73729,0.289574 2.58008,0.53711 1.14388,0.335971 2.24513,0.806096 3.36719,1.208984 2.78377,1.279614 5.59318,2.502664 8.37109,3.794922 0.91439,0.425362 1.82427,0.862149 2.73047,1.304687 1.43678,0.701627 0.83282,0.714055 1.49024,0.671875 -1.56642,-0.579964 0.58533,0.131657 1.4707,0.427735 0.12873,-0.153224 0.25587,-0.308564 0.41602,-0.427735 1.72981,-1.287276 3.51264,-2.512841 5.375,-3.599609 1.90297,-1.110482 4.84819,-2.035099 6.96679,-2.474609 2.25058,-0.466892 4.22733,-0.308982 6.53321,-0.294922 3.338,0.08839 2.94288,-0.0022 6.83593,0.566406 0.853,0.124581 1.7433,0.157627 2.54102,0.484375 1.7755,0.727248 3.5815,1.487876 5.10937,2.648437 1.09512,0.83185 1.80605,1.574933 2.33399,2.337891 0.0498,-1.228791 0.10244,-2.45906 0.16015,-3.6875 0.16163,-3.437868 0.37157,-6.8732337 0.50391,-10.3124999 C 268.61621,3.5753908 268.96564,1.653302 269.50391,0 Z m 34.89062,8.9492188 c -0.39798,0.1756557 -0.79537,0.3506254 -1.19531,0.515625 0.6528,2.1896622 1.2978,4.7984042 1.9375,7.3281252 0.89686,-1.11873 1.75738,-2.246044 2.41992,-3.419922 1.10647,-0.09633 1.55155,-0.140883 2.2168,-0.04883 0.24864,-0.01519 0.49703,-0.03874 0.74609,-0.04102 0.64793,-0.006 1.29542,-9.57e-4 1.94336,0.01367 0.11068,-0.530601 0.22136,-1.061196 0.33203,-1.591797 -0.75965,-0.932773 -2.5086,-3.9266553 -4.44336,-3.6835936 -0.92847,0.1166442 -2.45894,0.5091803 -3.95703,0.9277344 z m -1.19531,0.515625 c -0.0177,-0.059267 -0.0351,-0.1054621 -0.0527,-0.1640626 -2.11547,0.6320433 -3.67952,1.1981468 -2.30079,0.9238278 0.79329,-0.157831 1.57515,-0.4386405 2.35352,-0.7597652 z m 6.70313,4.6367182 c -0.7104,0.379066 -1.29939,1.074229 -1.80469,1.94336 1.13917,-0.495059 2.29707,-0.939769 3.47265,-1.328125 -0.57463,-0.193578 -1.12893,-0.399834 -1.66796,-0.615235 z m 1.93164,2.212891 c -0.28045,0.154283 -0.64129,0.693378 -0.46289,0.546875 0.14153,-0.116236 0.28088,-0.23467 0.42187,-0.351562 0.0136,-0.06512 0.0274,-0.13019 0.041,-0.195313 z m -71.1836,1.265625 c -0.14512,0.0047 -0.28382,0.03484 -0.41601,0.08398 0.17353,0.715593 0.34752,1.431421 0.51758,2.148438 0.20619,-0.646891 0.48317,-1.309925 0.8125,-1.982422 -0.12167,-0.04747 -0.23135,-0.114843 -0.35547,-0.158203 -0.19747,-0.06898 -0.38281,-0.09744 -0.5586,-0.0918 z m 131.9668,1.902344 c -0.40767,0.125914 -1.48126,0.72977 -2.40625,1.226562 10e-4,3.84e-4 0.0126,0.0036 0.0137,0.0039 0.23509,0.08135 0.44937,0.172212 0.67578,0.257812 0.63633,-0.349675 1.24852,-0.7287 1.73633,-1.259765 0.21701,-0.236254 0.17815,-0.289581 -0.0195,-0.228516 z m 33.64453,0.412109 c -0.0176,-0.02214 -0.0643,0.189251 -0.11328,0.417969 0.0299,0.05144 0.0631,0.102433 0.0918,0.154297 0.008,-0.130512 0.0274,-0.259775 0.0312,-0.390625 0.003,-0.112434 -2.1e-4,-0.169893 -0.01,-0.181641 z m -105.75781,0.169922 c -1.80805,0.671136 -4.24899,1.536551 -0.19922,3.5 0.10945,-0.439101 0.39457,-1.609832 0.40625,-1.650391 0.0302,-0.104911 0.0485,-0.229375 0.0723,-0.341796 -0.0978,-0.502307 -0.20173,-1.003671 -0.27929,-1.507813 z m 25.02734,5.833985 c 0.0712,0.09929 0.14374,0.197547 0.21485,0.296874 0.009,-0.04194 0.0156,-0.08487 0.0234,-0.126953 -0.0795,-0.05658 -0.15881,-0.113346 -0.23828,-0.169921 z m 19.50195,1.435546 c 0.0503,-0.09901 -0.17792,0.141492 -0.23242,0.238282 -0.30631,0.544391 -0.44591,0.895912 -0.54297,1.226562 0.36492,-0.396603 0.52697,-0.975841 0.77539,-1.464844 z m 60.59376,0.314454 c -0.007,0.004 -0.016,0.01153 -0.0234,0.01562 0.007,0.0029 0.016,0.0069 0.0234,0.0098 z M 139.97461,29.53125 c 0.0119,0.0062 0.0233,0.0133 0.0352,0.01953 -0.007,-0.0058 -0.011,-0.01375 -0.0176,-0.01953 -0.005,-0.0041 -0.0125,0.0027 -0.0176,0 z m 68.18945,1.162109 c -0.70788,-0.03586 -1.41669,0.05442 -2.125,0.04883 -0.0234,0.276516 -0.0228,0.357369 -0.0703,0.74414 -0.18905,1.321997 -0.33305,2.651897 -0.56641,3.966797 -0.0135,0.07624 -0.10031,0.203149 -0.16601,0.162109 -0.22626,-0.141408 -0.32974,-0.422764 -0.53125,-0.597656 -0.055,-0.04776 -0.14859,-0.01453 -0.21289,-0.04883 -0.53713,-0.286616 -1.99867,-1.355911 -1.58399,-0.910156 0.61791,0.664211 1.47376,1.057202 2.21094,1.585937 0.78005,0.794368 1.56056,1.587713 2.33984,2.382813 0.15626,-0.01881 0.31232,-0.04152 0.46875,-0.05664 1.17723,-0.0666 4.30184,-0.300137 6.41211,-0.273437 0.64646,-1.624295 1.17069,-2.96411 1.57032,-3.886719 -1.63298,-0.728734 -3.26707,-1.455806 -4.8711,-2.246094 -1.1616,-0.559693 -1.44137,-0.798464 -2.875,-0.871094 z m -20.86523,1.082032 c -2.22269,2.243193 -4.30666,4.174822 -6.43555,5.84375 -0.0754,1.10314 -0.14848,2.206546 -0.23828,3.308593 -0.13526,1.659981 -0.39935,3.308214 -0.55078,4.966797 -0.64935,7.111758 -0.54382,5.105717 -0.38672,11.207031 -0.23563,0.555394 -0.42472,1.161529 -0.58984,1.792969 0.21451,0.513055 0.48311,1.052985 0.15234,0.91211 -0.11873,-0.05057 -0.2081,-0.09631 -0.32422,-0.146485 -0.31834,1.411501 -0.54981,2.91684 -0.85742,4.339844 H 282.7207 v -5.333984 c -0.77931,0.311047 -1.55068,0.651753 -2.37304,0.798828 -1.73368,0.310058 -3.50841,0.31747 -5.26563,0.435547 -1.19674,0.08042 -2.39792,0.223266 -3.5957,0.160156 -2.52709,-0.133155 -5.04466,-0.426047 -7.55469,-0.748047 -1.81769,-0.233184 -7.85604,-1.412619 -9.69726,-1.763672 -3.02838,-0.634019 -6.08191,-1.17452 -9.14649,-1.603516 -0.91264,-0.127754 -1.82839,-0.232736 -2.74414,-0.335937 -0.44328,-0.04996 -0.88606,-0.112787 -1.33203,-0.123047 -0.22577,-0.0052 -0.44945,0.05069 -0.67383,0.07617 -0.80545,1.034845 -0.30902,0.424832 -3.79883,-0.21875 -0.93348,-0.17215 -2.10065,-0.180445 -2.69336,-0.921875 -1.45978,-1.826074 -2.57742,-3.279753 -3.47656,-4.623047 -0.92271,2.224128 -1.92354,2.346925 -5.23047,5.699219 -4.37748,1.25029 -4.21937,1.815543 -8.55859,0.875 -0.89769,-0.194578 -1.6524,-0.916653 -2.56641,-1.007813 -0.34918,-0.03482 0.98023,0.666121 0.66406,0.81836 -0.70301,0.338484 -1.56208,-0.03941 -2.34179,-0.0098 -1.09392,0.04163 -2.18321,0.148136 -3.27539,0.222656 -2.7222,0.277101 -3.46022,0.490898 -6.70117,-0.158203 -1.22542,-0.245426 -2.48172,-0.565395 -3.54102,-1.228515 -1.58072,-0.98952 -2.93735,-2.316029 -4.24414,-3.646485 -1.70275,-1.733541 -1.60838,-3.372125 -1.60938,-1.822265 -2.29114,-1.129522 -1.51429,-0.668529 -4.44922,-5.320313 -0.63839,-1.011885 -1.09004,-2.165002 -1.3164,-3.339844 -0.35859,-1.861148 -0.43622,-3.774614 -0.41992,-5.669921 0.009,-1.100282 0.33895,-2.174628 0.49609,-3.263672 0.008,-0.05724 0.0153,-0.114623 0.0234,-0.171875 z m 17.74609,6.197265 c -0.0922,-0.0022 -0.0961,0.277407 -0.004,0.277344 0.38724,-2.64e-4 0.77297,-0.04225 1.1582,-0.08398 -0.37882,-0.103405 -0.76415,-0.184153 -1.1543,-0.19336 z m 14.98438,0.361328 c -0.29639,-0.01394 -0.54843,-0.0022 -0.78711,0.01953 1.02052,0.196157 2.04211,0.390864 3.07226,0.521484 0.52034,0.06598 -0.98135,-0.406843 -1.50195,-0.470703 -0.28942,-0.0355 -0.54761,-0.05924 -0.7832,-0.07031 z m -106.95118,4.207032 c -0.0185,0.02509 -0.0361,0.05322 -0.0547,0.07813 0.0532,0.04436 0.10373,0.09192 0.1582,0.134765 0.0967,0.07606 0.0247,-0.05635 -0.10352,-0.21289 z m 100.13868,0.527343 c -0.0504,0.07104 -0.10433,0.139588 -0.1543,0.210938 -0.0382,0.0545 -0.004,0.260669 0.0215,0.199219 0.0556,-0.13381 0.0849,-0.274435 0.13282,-0.410157 z m 26.44336,0.925782 c -0.0822,0.02795 -0.1641,0.05556 -0.2461,0.08398 0.0199,-0.0017 0.0562,-0.0067 0.0723,-0.0078 0.0659,-0.02398 0.0883,-0.03362 0.19726,-0.07227 -0.008,-0.0018 -0.0158,-0.002 -0.0234,-0.0039 z m -11.71875,1.269531 c -0.2471,-0.0024 -0.49257,0.0069 -0.73829,0.03711 -0.2814,0.03462 0.51405,0.238606 0.77149,0.357422 0.096,0.0063 0.17948,-0.0165 0.26953,-0.02344 -0.0398,-0.118056 -0.0742,-0.241185 -0.11133,-0.361328 -0.0636,-0.0021 -0.12784,-0.0091 -0.1914,-0.0098 z" />
    </clipPath>
  </defs>
  <path
     d="M 36.95,0 73.9,64 C 49.266667,64 -168.85882,283.63974 0,64 Z"
     fill="#000000"
     id="path58"
     clip-path="url(#clipPath474)"
     transform="matrix(1.7344291,0,0,1.7344291,0.02066511,8.5539348)" />
</svg>
